<mxfile host="app.diagrams.net" modified="2022-11-13T15:02:57.315Z" agent="5.0 (Windows NT 10.0; Win64; x64) AppleWebKit/537.36 (KHTML, like Gecko) Chrome/106.0.0.0 Safari/537.36" etag="VVNnHn3WamKxPVcnUGqv" version="20.5.3" type="github">
  <diagram id="C5RBs43oDa-KdzZeNtuy" name="Page-1">
    <mxGraphModel dx="1038" dy="539" grid="1" gridSize="10" guides="1" tooltips="1" connect="1" arrows="1" fold="1" page="1" pageScale="1" pageWidth="827" pageHeight="1169" math="0" shadow="0">
      <root>
        <mxCell id="WIyWlLk6GJQsqaUBKTNV-0" />
        <mxCell id="WIyWlLk6GJQsqaUBKTNV-1" parent="WIyWlLk6GJQsqaUBKTNV-0" />
        <mxCell id="yWisvz86Ieo4HoxSNun3-1" style="edgeStyle=orthogonalEdgeStyle;rounded=0;orthogonalLoop=1;jettySize=auto;html=1;entryX=0.5;entryY=0;entryDx=0;entryDy=0;" edge="1" parent="WIyWlLk6GJQsqaUBKTNV-1" source="WIyWlLk6GJQsqaUBKTNV-3" target="yWisvz86Ieo4HoxSNun3-0">
          <mxGeometry relative="1" as="geometry" />
        </mxCell>
        <mxCell id="WIyWlLk6GJQsqaUBKTNV-3" value="Setup" style="rounded=1;whiteSpace=wrap;html=1;fontSize=12;glass=0;strokeWidth=1;shadow=0;" parent="WIyWlLk6GJQsqaUBKTNV-1" vertex="1">
          <mxGeometry x="433" y="135" width="120" height="40" as="geometry" />
        </mxCell>
        <mxCell id="yWisvz86Ieo4HoxSNun3-4" style="edgeStyle=orthogonalEdgeStyle;rounded=0;orthogonalLoop=1;jettySize=auto;html=1;" edge="1" parent="WIyWlLk6GJQsqaUBKTNV-1" source="yWisvz86Ieo4HoxSNun3-0" target="yWisvz86Ieo4HoxSNun3-3">
          <mxGeometry relative="1" as="geometry" />
        </mxCell>
        <mxCell id="yWisvz86Ieo4HoxSNun3-0" value="Initialise Game" style="rounded=1;whiteSpace=wrap;html=1;fontSize=12;glass=0;strokeWidth=1;shadow=0;" vertex="1" parent="WIyWlLk6GJQsqaUBKTNV-1">
          <mxGeometry x="433" y="245" width="120" height="40" as="geometry" />
        </mxCell>
        <mxCell id="yWisvz86Ieo4HoxSNun3-15" style="edgeStyle=orthogonalEdgeStyle;rounded=0;orthogonalLoop=1;jettySize=auto;html=1;" edge="1" parent="WIyWlLk6GJQsqaUBKTNV-1" source="yWisvz86Ieo4HoxSNun3-2" target="yWisvz86Ieo4HoxSNun3-14">
          <mxGeometry relative="1" as="geometry" />
        </mxCell>
        <mxCell id="yWisvz86Ieo4HoxSNun3-2" value="Start Game" style="rounded=1;whiteSpace=wrap;html=1;fontSize=12;glass=0;strokeWidth=1;shadow=0;" vertex="1" parent="WIyWlLk6GJQsqaUBKTNV-1">
          <mxGeometry x="433" y="445" width="120" height="40" as="geometry" />
        </mxCell>
        <mxCell id="yWisvz86Ieo4HoxSNun3-8" style="edgeStyle=orthogonalEdgeStyle;rounded=0;orthogonalLoop=1;jettySize=auto;html=1;entryX=0;entryY=0.5;entryDx=0;entryDy=0;" edge="1" parent="WIyWlLk6GJQsqaUBKTNV-1" source="yWisvz86Ieo4HoxSNun3-3" target="yWisvz86Ieo4HoxSNun3-0">
          <mxGeometry relative="1" as="geometry">
            <Array as="points">
              <mxPoint x="408" y="380" />
              <mxPoint x="408" y="265" />
            </Array>
          </mxGeometry>
        </mxCell>
        <mxCell id="yWisvz86Ieo4HoxSNun3-9" value="No" style="edgeLabel;html=1;align=center;verticalAlign=middle;resizable=0;points=[];" vertex="1" connectable="0" parent="yWisvz86Ieo4HoxSNun3-8">
          <mxGeometry x="-0.5575" y="-1" relative="1" as="geometry">
            <mxPoint x="-16" y="-24" as="offset" />
          </mxGeometry>
        </mxCell>
        <mxCell id="yWisvz86Ieo4HoxSNun3-12" style="edgeStyle=orthogonalEdgeStyle;rounded=0;orthogonalLoop=1;jettySize=auto;html=1;" edge="1" parent="WIyWlLk6GJQsqaUBKTNV-1" source="yWisvz86Ieo4HoxSNun3-3" target="yWisvz86Ieo4HoxSNun3-2">
          <mxGeometry relative="1" as="geometry" />
        </mxCell>
        <mxCell id="yWisvz86Ieo4HoxSNun3-13" value="Yes" style="edgeLabel;html=1;align=center;verticalAlign=middle;resizable=0;points=[];" vertex="1" connectable="0" parent="yWisvz86Ieo4HoxSNun3-12">
          <mxGeometry x="0.2347" relative="1" as="geometry">
            <mxPoint x="20" y="2" as="offset" />
          </mxGeometry>
        </mxCell>
        <mxCell id="yWisvz86Ieo4HoxSNun3-3" value="Start Game &lt;br&gt;Button pressed?" style="rhombus;whiteSpace=wrap;html=1;shadow=0;fontFamily=Helvetica;fontSize=12;align=center;strokeWidth=1;spacing=6;spacingTop=-4;" vertex="1" parent="WIyWlLk6GJQsqaUBKTNV-1">
          <mxGeometry x="428" y="335" width="130" height="70" as="geometry" />
        </mxCell>
        <mxCell id="yWisvz86Ieo4HoxSNun3-19" style="edgeStyle=orthogonalEdgeStyle;rounded=0;orthogonalLoop=1;jettySize=auto;html=1;entryX=0.5;entryY=0;entryDx=0;entryDy=0;" edge="1" parent="WIyWlLk6GJQsqaUBKTNV-1" source="yWisvz86Ieo4HoxSNun3-14" target="yWisvz86Ieo4HoxSNun3-18">
          <mxGeometry relative="1" as="geometry" />
        </mxCell>
        <mxCell id="yWisvz86Ieo4HoxSNun3-14" value="Generate random&lt;br&gt;number" style="rounded=1;whiteSpace=wrap;html=1;absoluteArcSize=1;arcSize=14;strokeWidth=2;" vertex="1" parent="WIyWlLk6GJQsqaUBKTNV-1">
          <mxGeometry x="443" y="530" width="100" height="50" as="geometry" />
        </mxCell>
        <mxCell id="yWisvz86Ieo4HoxSNun3-43" style="edgeStyle=orthogonalEdgeStyle;rounded=0;orthogonalLoop=1;jettySize=auto;html=1;entryX=0.5;entryY=0;entryDx=0;entryDy=0;" edge="1" parent="WIyWlLk6GJQsqaUBKTNV-1" source="yWisvz86Ieo4HoxSNun3-16" target="yWisvz86Ieo4HoxSNun3-38">
          <mxGeometry relative="1" as="geometry" />
        </mxCell>
        <mxCell id="yWisvz86Ieo4HoxSNun3-44" style="edgeStyle=orthogonalEdgeStyle;rounded=0;orthogonalLoop=1;jettySize=auto;html=1;entryX=0.5;entryY=0;entryDx=0;entryDy=0;" edge="1" parent="WIyWlLk6GJQsqaUBKTNV-1" source="yWisvz86Ieo4HoxSNun3-16" target="yWisvz86Ieo4HoxSNun3-41">
          <mxGeometry relative="1" as="geometry" />
        </mxCell>
        <mxCell id="yWisvz86Ieo4HoxSNun3-45" style="edgeStyle=orthogonalEdgeStyle;rounded=0;orthogonalLoop=1;jettySize=auto;html=1;entryX=0.5;entryY=0;entryDx=0;entryDy=0;" edge="1" parent="WIyWlLk6GJQsqaUBKTNV-1" source="yWisvz86Ieo4HoxSNun3-16" target="yWisvz86Ieo4HoxSNun3-42">
          <mxGeometry relative="1" as="geometry" />
        </mxCell>
        <mxCell id="yWisvz86Ieo4HoxSNun3-48" style="edgeStyle=orthogonalEdgeStyle;rounded=0;orthogonalLoop=1;jettySize=auto;html=1;" edge="1" parent="WIyWlLk6GJQsqaUBKTNV-1" source="yWisvz86Ieo4HoxSNun3-16" target="yWisvz86Ieo4HoxSNun3-40">
          <mxGeometry relative="1" as="geometry" />
        </mxCell>
        <mxCell id="yWisvz86Ieo4HoxSNun3-50" style="edgeStyle=orthogonalEdgeStyle;rounded=0;orthogonalLoop=1;jettySize=auto;html=1;entryX=0.5;entryY=0;entryDx=0;entryDy=0;" edge="1" parent="WIyWlLk6GJQsqaUBKTNV-1" source="yWisvz86Ieo4HoxSNun3-16" target="yWisvz86Ieo4HoxSNun3-39">
          <mxGeometry relative="1" as="geometry" />
        </mxCell>
        <mxCell id="yWisvz86Ieo4HoxSNun3-16" value="Display tile" style="rounded=1;whiteSpace=wrap;html=1;absoluteArcSize=1;arcSize=14;strokeWidth=2;" vertex="1" parent="WIyWlLk6GJQsqaUBKTNV-1">
          <mxGeometry x="443" y="740" width="100" height="50" as="geometry" />
        </mxCell>
        <mxCell id="yWisvz86Ieo4HoxSNun3-20" style="edgeStyle=orthogonalEdgeStyle;rounded=0;orthogonalLoop=1;jettySize=auto;html=1;entryX=0.5;entryY=0;entryDx=0;entryDy=0;" edge="1" parent="WIyWlLk6GJQsqaUBKTNV-1" source="yWisvz86Ieo4HoxSNun3-18" target="yWisvz86Ieo4HoxSNun3-16">
          <mxGeometry relative="1" as="geometry" />
        </mxCell>
        <mxCell id="yWisvz86Ieo4HoxSNun3-24" value="Yes" style="edgeLabel;html=1;align=center;verticalAlign=middle;resizable=0;points=[];" vertex="1" connectable="0" parent="yWisvz86Ieo4HoxSNun3-20">
          <mxGeometry x="-0.2844" y="1" relative="1" as="geometry">
            <mxPoint x="16" y="8" as="offset" />
          </mxGeometry>
        </mxCell>
        <mxCell id="yWisvz86Ieo4HoxSNun3-22" style="edgeStyle=orthogonalEdgeStyle;rounded=0;orthogonalLoop=1;jettySize=auto;html=1;entryX=1;entryY=0.5;entryDx=0;entryDy=0;" edge="1" parent="WIyWlLk6GJQsqaUBKTNV-1" source="yWisvz86Ieo4HoxSNun3-18" target="yWisvz86Ieo4HoxSNun3-37">
          <mxGeometry relative="1" as="geometry">
            <mxPoint x="190" y="575" as="targetPoint" />
          </mxGeometry>
        </mxCell>
        <mxCell id="yWisvz86Ieo4HoxSNun3-23" value="No" style="edgeLabel;html=1;align=center;verticalAlign=middle;resizable=0;points=[];" vertex="1" connectable="0" parent="yWisvz86Ieo4HoxSNun3-22">
          <mxGeometry x="-0.2356" y="-5" relative="1" as="geometry">
            <mxPoint x="-6" y="-10" as="offset" />
          </mxGeometry>
        </mxCell>
        <mxCell id="yWisvz86Ieo4HoxSNun3-18" value="Sufficient &lt;br&gt;space for tile?" style="rhombus;whiteSpace=wrap;html=1;shadow=0;fontFamily=Helvetica;fontSize=12;align=center;strokeWidth=1;spacing=6;spacingTop=-4;" vertex="1" parent="WIyWlLk6GJQsqaUBKTNV-1">
          <mxGeometry x="430" y="630" width="126" height="70" as="geometry" />
        </mxCell>
        <mxCell id="yWisvz86Ieo4HoxSNun3-36" style="edgeStyle=orthogonalEdgeStyle;rounded=0;orthogonalLoop=1;jettySize=auto;html=1;entryX=0.352;entryY=0.01;entryDx=0;entryDy=0;entryPerimeter=0;" edge="1" parent="WIyWlLk6GJQsqaUBKTNV-1" source="yWisvz86Ieo4HoxSNun3-26" target="yWisvz86Ieo4HoxSNun3-0">
          <mxGeometry relative="1" as="geometry">
            <Array as="points">
              <mxPoint x="140" y="210" />
              <mxPoint x="475" y="210" />
            </Array>
          </mxGeometry>
        </mxCell>
        <mxCell id="yWisvz86Ieo4HoxSNun3-26" value="Update Highscore" style="rounded=1;whiteSpace=wrap;html=1;absoluteArcSize=1;arcSize=14;strokeWidth=2;" vertex="1" parent="WIyWlLk6GJQsqaUBKTNV-1">
          <mxGeometry x="90" y="250" width="100" height="50" as="geometry" />
        </mxCell>
        <mxCell id="yWisvz86Ieo4HoxSNun3-29" style="edgeStyle=orthogonalEdgeStyle;rounded=0;orthogonalLoop=1;jettySize=auto;html=1;" edge="1" parent="WIyWlLk6GJQsqaUBKTNV-1" source="yWisvz86Ieo4HoxSNun3-27" target="yWisvz86Ieo4HoxSNun3-26">
          <mxGeometry relative="1" as="geometry" />
        </mxCell>
        <mxCell id="yWisvz86Ieo4HoxSNun3-30" value="Yes" style="edgeLabel;html=1;align=center;verticalAlign=middle;resizable=0;points=[];" vertex="1" connectable="0" parent="yWisvz86Ieo4HoxSNun3-29">
          <mxGeometry x="0.2844" y="1" relative="1" as="geometry">
            <mxPoint x="-19" y="28" as="offset" />
          </mxGeometry>
        </mxCell>
        <mxCell id="yWisvz86Ieo4HoxSNun3-31" style="edgeStyle=orthogonalEdgeStyle;rounded=0;orthogonalLoop=1;jettySize=auto;html=1;entryX=0.25;entryY=0;entryDx=0;entryDy=0;" edge="1" parent="WIyWlLk6GJQsqaUBKTNV-1" source="yWisvz86Ieo4HoxSNun3-27" target="yWisvz86Ieo4HoxSNun3-0">
          <mxGeometry relative="1" as="geometry">
            <Array as="points">
              <mxPoint x="260" y="438" />
              <mxPoint x="260" y="225" />
              <mxPoint x="463" y="225" />
            </Array>
          </mxGeometry>
        </mxCell>
        <mxCell id="yWisvz86Ieo4HoxSNun3-32" value="No" style="edgeLabel;html=1;align=center;verticalAlign=middle;resizable=0;points=[];" vertex="1" connectable="0" parent="yWisvz86Ieo4HoxSNun3-31">
          <mxGeometry x="-0.632" y="2" relative="1" as="geometry">
            <mxPoint x="-8" y="5" as="offset" />
          </mxGeometry>
        </mxCell>
        <mxCell id="yWisvz86Ieo4HoxSNun3-27" value="Is &lt;br&gt;Score&amp;gt;Highscore?" style="rhombus;whiteSpace=wrap;html=1;shadow=0;fontFamily=Helvetica;fontSize=12;align=center;strokeWidth=1;spacing=6;spacingTop=-4;" vertex="1" parent="WIyWlLk6GJQsqaUBKTNV-1">
          <mxGeometry x="72.5" y="390" width="135" height="95" as="geometry" />
        </mxCell>
        <mxCell id="yWisvz86Ieo4HoxSNun3-113" style="edgeStyle=orthogonalEdgeStyle;rounded=0;orthogonalLoop=1;jettySize=auto;html=1;entryX=0.5;entryY=1;entryDx=0;entryDy=0;" edge="1" parent="WIyWlLk6GJQsqaUBKTNV-1" source="yWisvz86Ieo4HoxSNun3-37" target="yWisvz86Ieo4HoxSNun3-27">
          <mxGeometry relative="1" as="geometry" />
        </mxCell>
        <mxCell id="yWisvz86Ieo4HoxSNun3-37" value="Game Over" style="rounded=1;whiteSpace=wrap;html=1;fontSize=12;glass=0;strokeWidth=1;shadow=0;" vertex="1" parent="WIyWlLk6GJQsqaUBKTNV-1">
          <mxGeometry x="230" y="645" width="120" height="40" as="geometry" />
        </mxCell>
        <mxCell id="yWisvz86Ieo4HoxSNun3-72" style="edgeStyle=orthogonalEdgeStyle;rounded=0;orthogonalLoop=1;jettySize=auto;html=1;entryX=0;entryY=0.5;entryDx=0;entryDy=0;" edge="1" parent="WIyWlLk6GJQsqaUBKTNV-1" source="yWisvz86Ieo4HoxSNun3-38" target="yWisvz86Ieo4HoxSNun3-67">
          <mxGeometry relative="1" as="geometry">
            <Array as="points">
              <mxPoint x="155" y="1035" />
            </Array>
          </mxGeometry>
        </mxCell>
        <mxCell id="yWisvz86Ieo4HoxSNun3-38" value="is rotate button&lt;br&gt;pressed?" style="rhombus;whiteSpace=wrap;html=1;shadow=0;fontFamily=Helvetica;fontSize=12;align=center;strokeWidth=1;spacing=6;spacingTop=-4;" vertex="1" parent="WIyWlLk6GJQsqaUBKTNV-1">
          <mxGeometry x="90" y="850" width="130" height="70" as="geometry" />
        </mxCell>
        <mxCell id="yWisvz86Ieo4HoxSNun3-75" style="edgeStyle=orthogonalEdgeStyle;rounded=0;orthogonalLoop=1;jettySize=auto;html=1;entryX=1;entryY=0.5;entryDx=0;entryDy=0;" edge="1" parent="WIyWlLk6GJQsqaUBKTNV-1" source="yWisvz86Ieo4HoxSNun3-39" target="yWisvz86Ieo4HoxSNun3-67">
          <mxGeometry relative="1" as="geometry">
            <Array as="points">
              <mxPoint x="655" y="1035" />
            </Array>
          </mxGeometry>
        </mxCell>
        <mxCell id="yWisvz86Ieo4HoxSNun3-39" value="is soft drop&lt;br&gt;button pressed?" style="rhombus;whiteSpace=wrap;html=1;shadow=0;fontFamily=Helvetica;fontSize=12;align=center;strokeWidth=1;spacing=6;spacingTop=-4;" vertex="1" parent="WIyWlLk6GJQsqaUBKTNV-1">
          <mxGeometry x="590" y="850" width="130" height="70" as="geometry" />
        </mxCell>
        <mxCell id="yWisvz86Ieo4HoxSNun3-76" style="edgeStyle=orthogonalEdgeStyle;rounded=0;orthogonalLoop=1;jettySize=auto;html=1;entryX=1;entryY=0.5;entryDx=0;entryDy=0;" edge="1" parent="WIyWlLk6GJQsqaUBKTNV-1" source="yWisvz86Ieo4HoxSNun3-40" target="yWisvz86Ieo4HoxSNun3-67">
          <mxGeometry relative="1" as="geometry">
            <Array as="points">
              <mxPoint x="805" y="1035" />
            </Array>
          </mxGeometry>
        </mxCell>
        <mxCell id="yWisvz86Ieo4HoxSNun3-40" value="is hard drop&lt;br&gt;button pressed?" style="rhombus;whiteSpace=wrap;html=1;shadow=0;fontFamily=Helvetica;fontSize=12;align=center;strokeWidth=1;spacing=6;spacingTop=-4;" vertex="1" parent="WIyWlLk6GJQsqaUBKTNV-1">
          <mxGeometry x="740" y="850" width="130" height="70" as="geometry" />
        </mxCell>
        <mxCell id="yWisvz86Ieo4HoxSNun3-73" style="edgeStyle=orthogonalEdgeStyle;rounded=0;orthogonalLoop=1;jettySize=auto;html=1;entryX=0;entryY=0.5;entryDx=0;entryDy=0;" edge="1" parent="WIyWlLk6GJQsqaUBKTNV-1" source="yWisvz86Ieo4HoxSNun3-41" target="yWisvz86Ieo4HoxSNun3-67">
          <mxGeometry relative="1" as="geometry">
            <Array as="points">
              <mxPoint x="315" y="1035" />
            </Array>
          </mxGeometry>
        </mxCell>
        <mxCell id="yWisvz86Ieo4HoxSNun3-41" value="is left button&lt;br&gt;pressed?" style="rhombus;whiteSpace=wrap;html=1;shadow=0;fontFamily=Helvetica;fontSize=12;align=center;strokeWidth=1;spacing=6;spacingTop=-4;" vertex="1" parent="WIyWlLk6GJQsqaUBKTNV-1">
          <mxGeometry x="250" y="850" width="130" height="70" as="geometry" />
        </mxCell>
        <mxCell id="yWisvz86Ieo4HoxSNun3-74" style="edgeStyle=orthogonalEdgeStyle;rounded=0;orthogonalLoop=1;jettySize=auto;html=1;entryX=0.5;entryY=0;entryDx=0;entryDy=0;" edge="1" parent="WIyWlLk6GJQsqaUBKTNV-1" source="yWisvz86Ieo4HoxSNun3-42" target="yWisvz86Ieo4HoxSNun3-67">
          <mxGeometry relative="1" as="geometry" />
        </mxCell>
        <mxCell id="yWisvz86Ieo4HoxSNun3-42" value="is right button&lt;br&gt;pressed?" style="rhombus;whiteSpace=wrap;html=1;shadow=0;fontFamily=Helvetica;fontSize=12;align=center;strokeWidth=1;spacing=6;spacingTop=-4;" vertex="1" parent="WIyWlLk6GJQsqaUBKTNV-1">
          <mxGeometry x="428" y="850" width="130" height="70" as="geometry" />
        </mxCell>
        <mxCell id="yWisvz86Ieo4HoxSNun3-84" style="edgeStyle=orthogonalEdgeStyle;rounded=0;orthogonalLoop=1;jettySize=auto;html=1;entryX=0;entryY=0.5;entryDx=0;entryDy=0;" edge="1" parent="WIyWlLk6GJQsqaUBKTNV-1" source="yWisvz86Ieo4HoxSNun3-51" target="yWisvz86Ieo4HoxSNun3-83">
          <mxGeometry relative="1" as="geometry">
            <Array as="points">
              <mxPoint x="155" y="1345" />
            </Array>
          </mxGeometry>
        </mxCell>
        <mxCell id="yWisvz86Ieo4HoxSNun3-51" value="Rotate" style="rounded=1;whiteSpace=wrap;html=1;absoluteArcSize=1;arcSize=14;strokeWidth=2;" vertex="1" parent="WIyWlLk6GJQsqaUBKTNV-1">
          <mxGeometry x="105" y="1160" width="100" height="50" as="geometry" />
        </mxCell>
        <mxCell id="yWisvz86Ieo4HoxSNun3-85" style="edgeStyle=orthogonalEdgeStyle;rounded=0;orthogonalLoop=1;jettySize=auto;html=1;entryX=0;entryY=0.5;entryDx=0;entryDy=0;" edge="1" parent="WIyWlLk6GJQsqaUBKTNV-1" source="yWisvz86Ieo4HoxSNun3-52" target="yWisvz86Ieo4HoxSNun3-83">
          <mxGeometry relative="1" as="geometry">
            <Array as="points">
              <mxPoint x="315" y="1345" />
            </Array>
          </mxGeometry>
        </mxCell>
        <mxCell id="yWisvz86Ieo4HoxSNun3-52" value="Move left" style="rounded=1;whiteSpace=wrap;html=1;absoluteArcSize=1;arcSize=14;strokeWidth=2;" vertex="1" parent="WIyWlLk6GJQsqaUBKTNV-1">
          <mxGeometry x="265" y="1160" width="100" height="50" as="geometry" />
        </mxCell>
        <mxCell id="yWisvz86Ieo4HoxSNun3-86" style="edgeStyle=orthogonalEdgeStyle;rounded=0;orthogonalLoop=1;jettySize=auto;html=1;entryX=0.5;entryY=0;entryDx=0;entryDy=0;" edge="1" parent="WIyWlLk6GJQsqaUBKTNV-1" source="yWisvz86Ieo4HoxSNun3-53" target="yWisvz86Ieo4HoxSNun3-83">
          <mxGeometry relative="1" as="geometry" />
        </mxCell>
        <mxCell id="yWisvz86Ieo4HoxSNun3-53" value="Move right" style="rounded=1;whiteSpace=wrap;html=1;absoluteArcSize=1;arcSize=14;strokeWidth=2;" vertex="1" parent="WIyWlLk6GJQsqaUBKTNV-1">
          <mxGeometry x="443" y="1160" width="100" height="50" as="geometry" />
        </mxCell>
        <mxCell id="yWisvz86Ieo4HoxSNun3-87" style="edgeStyle=orthogonalEdgeStyle;rounded=0;orthogonalLoop=1;jettySize=auto;html=1;entryX=1;entryY=0.5;entryDx=0;entryDy=0;" edge="1" parent="WIyWlLk6GJQsqaUBKTNV-1" source="yWisvz86Ieo4HoxSNun3-54" target="yWisvz86Ieo4HoxSNun3-83">
          <mxGeometry relative="1" as="geometry">
            <Array as="points">
              <mxPoint x="655" y="1345" />
            </Array>
          </mxGeometry>
        </mxCell>
        <mxCell id="yWisvz86Ieo4HoxSNun3-54" value="Soft drop" style="rounded=1;whiteSpace=wrap;html=1;absoluteArcSize=1;arcSize=14;strokeWidth=2;" vertex="1" parent="WIyWlLk6GJQsqaUBKTNV-1">
          <mxGeometry x="605" y="1160" width="100" height="50" as="geometry" />
        </mxCell>
        <mxCell id="yWisvz86Ieo4HoxSNun3-88" style="edgeStyle=orthogonalEdgeStyle;rounded=0;orthogonalLoop=1;jettySize=auto;html=1;entryX=1;entryY=0.5;entryDx=0;entryDy=0;" edge="1" parent="WIyWlLk6GJQsqaUBKTNV-1" source="yWisvz86Ieo4HoxSNun3-55" target="yWisvz86Ieo4HoxSNun3-83">
          <mxGeometry relative="1" as="geometry">
            <Array as="points">
              <mxPoint x="805" y="1345" />
            </Array>
          </mxGeometry>
        </mxCell>
        <mxCell id="yWisvz86Ieo4HoxSNun3-55" value="Hard drop" style="rounded=1;whiteSpace=wrap;html=1;absoluteArcSize=1;arcSize=14;strokeWidth=2;" vertex="1" parent="WIyWlLk6GJQsqaUBKTNV-1">
          <mxGeometry x="755" y="1160" width="100" height="50" as="geometry" />
        </mxCell>
        <mxCell id="yWisvz86Ieo4HoxSNun3-77" style="edgeStyle=orthogonalEdgeStyle;rounded=0;orthogonalLoop=1;jettySize=auto;html=1;entryX=0.5;entryY=0;entryDx=0;entryDy=0;" edge="1" parent="WIyWlLk6GJQsqaUBKTNV-1" source="yWisvz86Ieo4HoxSNun3-67" target="yWisvz86Ieo4HoxSNun3-51">
          <mxGeometry relative="1" as="geometry">
            <Array as="points">
              <mxPoint x="493" y="1100" />
              <mxPoint x="155" y="1100" />
            </Array>
          </mxGeometry>
        </mxCell>
        <mxCell id="yWisvz86Ieo4HoxSNun3-78" style="edgeStyle=orthogonalEdgeStyle;rounded=0;orthogonalLoop=1;jettySize=auto;html=1;entryX=0.5;entryY=0;entryDx=0;entryDy=0;" edge="1" parent="WIyWlLk6GJQsqaUBKTNV-1" source="yWisvz86Ieo4HoxSNun3-67" target="yWisvz86Ieo4HoxSNun3-52">
          <mxGeometry relative="1" as="geometry">
            <Array as="points">
              <mxPoint x="493" y="1100" />
              <mxPoint x="315" y="1100" />
            </Array>
          </mxGeometry>
        </mxCell>
        <mxCell id="yWisvz86Ieo4HoxSNun3-79" style="edgeStyle=orthogonalEdgeStyle;rounded=0;orthogonalLoop=1;jettySize=auto;html=1;" edge="1" parent="WIyWlLk6GJQsqaUBKTNV-1" source="yWisvz86Ieo4HoxSNun3-67" target="yWisvz86Ieo4HoxSNun3-55">
          <mxGeometry relative="1" as="geometry">
            <Array as="points">
              <mxPoint x="493" y="1100" />
              <mxPoint x="805" y="1100" />
            </Array>
          </mxGeometry>
        </mxCell>
        <mxCell id="yWisvz86Ieo4HoxSNun3-80" style="edgeStyle=orthogonalEdgeStyle;rounded=0;orthogonalLoop=1;jettySize=auto;html=1;entryX=0.5;entryY=0;entryDx=0;entryDy=0;" edge="1" parent="WIyWlLk6GJQsqaUBKTNV-1" source="yWisvz86Ieo4HoxSNun3-67" target="yWisvz86Ieo4HoxSNun3-54">
          <mxGeometry relative="1" as="geometry">
            <Array as="points">
              <mxPoint x="493" y="1100" />
              <mxPoint x="655" y="1100" />
            </Array>
          </mxGeometry>
        </mxCell>
        <mxCell id="yWisvz86Ieo4HoxSNun3-81" style="edgeStyle=orthogonalEdgeStyle;rounded=0;orthogonalLoop=1;jettySize=auto;html=1;entryX=0.5;entryY=0;entryDx=0;entryDy=0;" edge="1" parent="WIyWlLk6GJQsqaUBKTNV-1" source="yWisvz86Ieo4HoxSNun3-67" target="yWisvz86Ieo4HoxSNun3-53">
          <mxGeometry relative="1" as="geometry" />
        </mxCell>
        <mxCell id="yWisvz86Ieo4HoxSNun3-82" value="No" style="edgeLabel;html=1;align=center;verticalAlign=middle;resizable=0;points=[];" vertex="1" connectable="0" parent="yWisvz86Ieo4HoxSNun3-81">
          <mxGeometry x="-0.7422" y="2" relative="1" as="geometry">
            <mxPoint x="15" as="offset" />
          </mxGeometry>
        </mxCell>
        <mxCell id="yWisvz86Ieo4HoxSNun3-67" value="Collision &lt;br&gt;Detected?" style="rhombus;whiteSpace=wrap;html=1;shadow=0;fontFamily=Helvetica;fontSize=12;align=center;strokeWidth=1;spacing=6;spacingTop=-4;" vertex="1" parent="WIyWlLk6GJQsqaUBKTNV-1">
          <mxGeometry x="430" y="1000" width="126" height="70" as="geometry" />
        </mxCell>
        <mxCell id="yWisvz86Ieo4HoxSNun3-89" style="edgeStyle=orthogonalEdgeStyle;rounded=0;orthogonalLoop=1;jettySize=auto;html=1;entryX=0.25;entryY=0;entryDx=0;entryDy=0;" edge="1" parent="WIyWlLk6GJQsqaUBKTNV-1" source="yWisvz86Ieo4HoxSNun3-83" target="yWisvz86Ieo4HoxSNun3-16">
          <mxGeometry relative="1" as="geometry">
            <Array as="points">
              <mxPoint x="493" y="1430" />
              <mxPoint x="70" y="1430" />
              <mxPoint x="70" y="720" />
              <mxPoint x="468" y="720" />
            </Array>
          </mxGeometry>
        </mxCell>
        <mxCell id="yWisvz86Ieo4HoxSNun3-90" value="No" style="edgeLabel;html=1;align=center;verticalAlign=middle;resizable=0;points=[];" vertex="1" connectable="0" parent="yWisvz86Ieo4HoxSNun3-89">
          <mxGeometry x="-0.8733" y="-1" relative="1" as="geometry">
            <mxPoint x="1" y="-9" as="offset" />
          </mxGeometry>
        </mxCell>
        <mxCell id="yWisvz86Ieo4HoxSNun3-95" style="edgeStyle=orthogonalEdgeStyle;rounded=0;orthogonalLoop=1;jettySize=auto;html=1;" edge="1" parent="WIyWlLk6GJQsqaUBKTNV-1" source="yWisvz86Ieo4HoxSNun3-83" target="yWisvz86Ieo4HoxSNun3-94">
          <mxGeometry relative="1" as="geometry" />
        </mxCell>
        <mxCell id="yWisvz86Ieo4HoxSNun3-96" value="Yes" style="edgeLabel;html=1;align=center;verticalAlign=middle;resizable=0;points=[];" vertex="1" connectable="0" parent="yWisvz86Ieo4HoxSNun3-95">
          <mxGeometry x="0.24" y="4" relative="1" as="geometry">
            <mxPoint x="13" as="offset" />
          </mxGeometry>
        </mxCell>
        <mxCell id="yWisvz86Ieo4HoxSNun3-83" value="Reached the &lt;br&gt;bottom?" style="rhombus;whiteSpace=wrap;html=1;shadow=0;fontFamily=Helvetica;fontSize=12;align=center;strokeWidth=1;spacing=6;spacingTop=-4;" vertex="1" parent="WIyWlLk6GJQsqaUBKTNV-1">
          <mxGeometry x="430" y="1310" width="126" height="70" as="geometry" />
        </mxCell>
        <mxCell id="yWisvz86Ieo4HoxSNun3-99" style="edgeStyle=orthogonalEdgeStyle;rounded=0;orthogonalLoop=1;jettySize=auto;html=1;" edge="1" parent="WIyWlLk6GJQsqaUBKTNV-1" source="yWisvz86Ieo4HoxSNun3-94" target="yWisvz86Ieo4HoxSNun3-98">
          <mxGeometry relative="1" as="geometry" />
        </mxCell>
        <mxCell id="yWisvz86Ieo4HoxSNun3-94" value="Update array" style="rounded=1;whiteSpace=wrap;html=1;absoluteArcSize=1;arcSize=14;strokeWidth=2;" vertex="1" parent="WIyWlLk6GJQsqaUBKTNV-1">
          <mxGeometry x="443" y="1510" width="100" height="50" as="geometry" />
        </mxCell>
        <mxCell id="yWisvz86Ieo4HoxSNun3-105" style="edgeStyle=orthogonalEdgeStyle;rounded=0;orthogonalLoop=1;jettySize=auto;html=1;" edge="1" parent="WIyWlLk6GJQsqaUBKTNV-1" source="yWisvz86Ieo4HoxSNun3-97" target="yWisvz86Ieo4HoxSNun3-104">
          <mxGeometry relative="1" as="geometry" />
        </mxCell>
        <mxCell id="yWisvz86Ieo4HoxSNun3-97" value="Blink" style="rounded=1;whiteSpace=wrap;html=1;absoluteArcSize=1;arcSize=14;strokeWidth=2;" vertex="1" parent="WIyWlLk6GJQsqaUBKTNV-1">
          <mxGeometry x="443" y="1740" width="100" height="50" as="geometry" />
        </mxCell>
        <mxCell id="yWisvz86Ieo4HoxSNun3-100" style="edgeStyle=orthogonalEdgeStyle;rounded=0;orthogonalLoop=1;jettySize=auto;html=1;" edge="1" parent="WIyWlLk6GJQsqaUBKTNV-1" source="yWisvz86Ieo4HoxSNun3-98" target="yWisvz86Ieo4HoxSNun3-97">
          <mxGeometry relative="1" as="geometry" />
        </mxCell>
        <mxCell id="yWisvz86Ieo4HoxSNun3-103" value="Yes" style="edgeLabel;html=1;align=center;verticalAlign=middle;resizable=0;points=[];" vertex="1" connectable="0" parent="yWisvz86Ieo4HoxSNun3-100">
          <mxGeometry x="-0.2978" y="1" relative="1" as="geometry">
            <mxPoint x="16" y="8" as="offset" />
          </mxGeometry>
        </mxCell>
        <mxCell id="yWisvz86Ieo4HoxSNun3-107" style="edgeStyle=orthogonalEdgeStyle;rounded=0;orthogonalLoop=1;jettySize=auto;html=1;entryX=0.75;entryY=0;entryDx=0;entryDy=0;" edge="1" parent="WIyWlLk6GJQsqaUBKTNV-1" source="yWisvz86Ieo4HoxSNun3-98" target="yWisvz86Ieo4HoxSNun3-14">
          <mxGeometry relative="1" as="geometry">
            <Array as="points">
              <mxPoint x="890" y="1655" />
              <mxPoint x="890" y="510" />
              <mxPoint x="518" y="510" />
            </Array>
          </mxGeometry>
        </mxCell>
        <mxCell id="yWisvz86Ieo4HoxSNun3-108" value="No" style="edgeLabel;html=1;align=center;verticalAlign=middle;resizable=0;points=[];" vertex="1" connectable="0" parent="yWisvz86Ieo4HoxSNun3-107">
          <mxGeometry x="-0.9801" relative="1" as="geometry">
            <mxPoint y="-15" as="offset" />
          </mxGeometry>
        </mxCell>
        <mxCell id="yWisvz86Ieo4HoxSNun3-98" value="is there line &lt;br&gt;to clear?" style="rhombus;whiteSpace=wrap;html=1;shadow=0;fontFamily=Helvetica;fontSize=12;align=center;strokeWidth=1;spacing=6;spacingTop=-4;" vertex="1" parent="WIyWlLk6GJQsqaUBKTNV-1">
          <mxGeometry x="430" y="1620" width="126" height="70" as="geometry" />
        </mxCell>
        <mxCell id="yWisvz86Ieo4HoxSNun3-110" style="edgeStyle=orthogonalEdgeStyle;rounded=0;orthogonalLoop=1;jettySize=auto;html=1;entryX=1;entryY=0.5;entryDx=0;entryDy=0;" edge="1" parent="WIyWlLk6GJQsqaUBKTNV-1" source="yWisvz86Ieo4HoxSNun3-104" target="yWisvz86Ieo4HoxSNun3-109">
          <mxGeometry relative="1" as="geometry" />
        </mxCell>
        <mxCell id="yWisvz86Ieo4HoxSNun3-104" value="Clear line" style="rounded=1;whiteSpace=wrap;html=1;absoluteArcSize=1;arcSize=14;strokeWidth=2;" vertex="1" parent="WIyWlLk6GJQsqaUBKTNV-1">
          <mxGeometry x="443" y="1850" width="100" height="50" as="geometry" />
        </mxCell>
        <mxCell id="yWisvz86Ieo4HoxSNun3-111" style="edgeStyle=orthogonalEdgeStyle;rounded=0;orthogonalLoop=1;jettySize=auto;html=1;entryX=0;entryY=0.5;entryDx=0;entryDy=0;" edge="1" parent="WIyWlLk6GJQsqaUBKTNV-1" source="yWisvz86Ieo4HoxSNun3-109" target="yWisvz86Ieo4HoxSNun3-94">
          <mxGeometry relative="1" as="geometry">
            <Array as="points">
              <mxPoint x="290" y="1535" />
            </Array>
          </mxGeometry>
        </mxCell>
        <mxCell id="yWisvz86Ieo4HoxSNun3-109" value="Update score" style="rounded=1;whiteSpace=wrap;html=1;absoluteArcSize=1;arcSize=14;strokeWidth=2;" vertex="1" parent="WIyWlLk6GJQsqaUBKTNV-1">
          <mxGeometry x="240" y="1850" width="100" height="50" as="geometry" />
        </mxCell>
      </root>
    </mxGraphModel>
  </diagram>
</mxfile>
